<svg xmlns="http://www.w3.org/2000/svg" width="52" height="68" viewBox="0 0 52 68">
    <g fill="none" fill-rule="nonzero">
        <path fill="#1391D1" d="M46.78 52.78l-5.034-2.91V25.928a15.74 15.74 0 0 0-10.339-14.803 15.68 15.68 0 0 0-17.409 4.692 15.772 15.772 0 0 0-1.539 18.004 15.89 15.89 0 0 0 5.834 5.812l13.385 7.743v11.638l-18.43-10.655C3.848 42.959-1.178 32.242.674 21.542 2.526 10.842 10.859 2.447 21.524.538 32.19-1.37 42.908 3.614 48.34 13.01a25.758 25.758 0 0 1 3.455 12.91v23.942l-5.015 2.917z"/>
        <path fill="#1F2346" d="M46.78 60.262l-5.03-2.908V53.22l5.03 2.908 5.029-2.905v4.134zM51.812 64.84l-5.033 2.905-5.027-2.905-.003-4.137 5.03 2.905 5.03-2.902z"/>
    </g>
</svg>
